<svg width="282" height="28" viewBox="0 0 282 28" fill="none" xmlns="http://www.w3.org/2000/svg">
<path d="M29.9682 9.91016L41.5012 9.91016L41.5012 12.0572L36.9602 12.0572L36.9602 24.1602L34.4712 24.1602L34.4712 12.0572L29.9492 12.0572L29.9682 9.91016ZM41.0072 13.8432L43.1352 13.8432L43.1352 15.8382L43.1732 15.8382C43.2492 15.5532 43.3822 15.2872 43.5722 15.0212C43.7622 14.7552 43.9902 14.5082 44.2752 14.2992C44.5412 14.0712 44.8452 13.9002 45.1872 13.7672C45.5102 13.6342 45.8522 13.5582 46.1942 13.5582C46.4602 13.5582 46.6502 13.5772 46.7452 13.5772C46.8402 13.5962 46.9542 13.6152 47.0492 13.6152L47.0492 15.8002C46.8972 15.7622 46.7262 15.7432 46.5552 15.7242C46.3842 15.7052 46.2322 15.6862 46.0612 15.6862C45.6812 15.6862 45.3202 15.7622 44.9782 15.9142C44.6362 16.0662 44.3512 16.2942 44.0852 16.5792C43.8382 16.8832 43.6292 17.2442 43.4772 17.6812C43.3252 18.1182 43.2492 18.6312 43.2492 19.2012L43.2492 24.1032L40.9692 24.1032L41.0072 13.8432ZM57.4992 24.1602L55.2572 24.1602L55.2572 22.7162L55.2192 22.7162C54.9342 23.2482 54.5162 23.6472 53.9652 23.9702C53.4142 24.2932 52.8442 24.4452 52.2742 24.4452C50.9252 24.4452 49.9372 24.1222 49.3292 23.4382C48.7212 22.7732 48.4172 21.7472 48.4172 20.3982L48.4172 13.8432L50.6972 13.8432L50.6972 20.1702C50.6972 21.0822 50.8682 21.7281 51.2292 22.0891C51.5712 22.4691 52.0652 22.6591 52.6922 22.6591C53.1672 22.6591 53.5662 22.5832 53.8892 22.4312C54.2122 22.2792 54.4782 22.0892 54.6682 21.8422C54.8772 21.5952 55.0102 21.2911 55.1052 20.9491C55.2002 20.6071 55.2382 20.2272 55.2382 19.8282L55.2382 13.8432L57.5182 13.8432L57.5182 24.1602L57.4992 24.1602ZM61.3752 20.8541C61.4512 21.5191 61.6982 21.9752 62.1352 22.2602C62.5722 22.5262 63.1042 22.6591 63.7122 22.6591C63.9212 22.6591 64.1682 22.6402 64.4342 22.6022C64.7002 22.5642 64.9662 22.5072 65.1942 22.4122C65.4412 22.3172 65.6312 22.1841 65.7832 21.9941C65.9352 21.8041 66.0112 21.5762 65.9922 21.2912C65.9732 21.0062 65.8782 20.7591 65.6692 20.5691C65.4602 20.3791 65.2132 20.2461 64.9092 20.1131C64.6052 19.9991 64.2442 19.9041 63.8452 19.8281C63.4462 19.7521 63.0472 19.6572 62.6292 19.5622C62.2112 19.4672 61.7932 19.3532 61.3942 19.2202C60.9952 19.0872 60.6532 18.9161 60.3302 18.6691C60.0262 18.4411 59.7602 18.1562 59.5892 17.7952C59.3992 17.4342 59.3042 17.0161 59.3042 16.4841C59.3042 15.9141 59.4372 15.4582 59.7222 15.0782C59.9882 14.6981 60.3492 14.3942 60.7672 14.1662C61.1852 13.9382 61.6602 13.7672 62.1732 13.6722C62.6862 13.5772 63.1802 13.5391 63.6362 13.5391C64.1682 13.5391 64.6812 13.5962 65.1562 13.7102C65.6312 13.8242 66.0872 13.9952 66.4672 14.2612C66.8662 14.5082 67.1892 14.8501 67.4362 15.2491C67.7022 15.6481 67.8542 16.1422 67.9302 16.7122L65.5552 16.7122C65.4412 16.1612 65.1942 15.8002 64.8142 15.6102C64.4152 15.4202 63.9782 15.3252 63.4652 15.3252C63.3132 15.3252 63.1042 15.3442 62.8952 15.3631C62.6672 15.4011 62.4772 15.4392 62.2682 15.5152C62.0782 15.5912 61.9072 15.7051 61.7742 15.8382C61.6412 15.9712 61.5652 16.1611 61.5652 16.3891C61.5652 16.6741 61.6602 16.8831 61.8502 17.0541C62.0402 17.2251 62.2872 17.3582 62.6102 17.4912C62.9142 17.6052 63.2752 17.7002 63.6742 17.7762C64.0732 17.8522 64.4912 17.9472 64.9092 18.0422C65.3272 18.1372 65.7262 18.2511 66.1252 18.3841C66.5242 18.5171 66.8852 18.6882 67.1892 18.9352C67.4932 19.1632 67.7592 19.4482 67.9492 19.7902C68.1392 20.1322 68.2342 20.5691 68.2342 21.0631C68.2342 21.6711 68.1012 22.1842 67.8162 22.6212C67.5312 23.0392 67.1702 23.4002 66.7332 23.6662C66.2962 23.9322 65.7832 24.1222 65.2512 24.2552C64.7002 24.3692 64.1682 24.4452 63.6362 24.4452C62.9902 24.4452 62.3822 24.3692 61.8312 24.2172C61.2802 24.0652 60.7862 23.8372 60.3872 23.5522C59.9882 23.2482 59.6652 22.8872 59.4372 22.4312C59.2092 21.9942 59.0762 21.4622 59.0572 20.8352L61.3562 20.8352L61.3562 20.8541L61.3752 20.8541ZM68.8802 13.8431L70.6092 13.8431L70.6092 10.7272L72.8892 10.7272L72.8892 13.8241L74.9412 13.8241L74.9412 15.5152L72.8892 15.5152L72.8892 21.0252C72.8892 21.2722 72.9082 21.4621 72.9272 21.6522C72.9462 21.8231 73.0032 21.9751 73.0602 22.0891C73.1362 22.2031 73.2502 22.2982 73.3832 22.3552C73.5352 22.4122 73.7252 22.4502 73.9912 22.4502C74.1432 22.4502 74.3142 22.4502 74.4662 22.4312C74.6182 22.4122 74.7892 22.3932 74.9412 22.3552L74.9412 24.1221C74.6942 24.1601 74.4472 24.1791 74.2002 24.1981C73.9532 24.2361 73.7252 24.2362 73.4592 24.2362C72.8512 24.2362 72.3762 24.1792 72.0152 24.0652C71.6542 23.9512 71.3692 23.7802 71.1602 23.5712C70.9512 23.3432 70.8182 23.0771 70.7422 22.7541C70.6662 22.4311 70.6282 22.0321 70.6092 21.6141L70.6092 15.5341L68.8802 15.5341L68.8802 13.8052L68.8802 13.8431ZM76.5372 13.8431L78.6842 13.8431L78.6842 15.2491L78.7222 15.2491C79.0452 14.6411 79.4822 14.2231 80.0522 13.9571C80.6222 13.6911 81.2302 13.5581 81.9142 13.5581C82.7312 13.5581 83.4342 13.6912 84.0422 13.9952C84.6502 14.2802 85.1442 14.6601 85.5432 15.1731C85.9422 15.6671 86.2462 16.2562 86.4362 16.9212C86.6262 17.5861 86.7402 18.3081 86.7402 19.0491C86.7402 19.7521 86.6452 20.4171 86.4742 21.0631C86.2842 21.7091 86.0182 22.2981 85.6572 22.7921C85.2962 23.2861 84.8402 23.6851 84.2702 23.9891C83.7002 24.2931 83.0542 24.4452 82.2942 24.4452C81.9712 24.4452 81.6292 24.4072 81.3062 24.3502C80.9832 24.2932 80.6602 24.1982 80.3562 24.0652C80.0522 23.9322 79.7672 23.7611 79.5202 23.5521C79.2542 23.3431 79.0452 23.0962 78.8742 22.8302L78.8362 22.8302L78.8362 27.9791L76.5562 27.9791L76.5562 13.8431L76.5372 13.8431ZM84.4982 19.0112C84.4982 18.5552 84.4412 18.0991 84.3082 17.6621C84.1942 17.2251 84.0042 16.8451 83.7572 16.5031C83.5102 16.1611 83.2062 15.8952 82.8642 15.6862C82.5032 15.4772 82.0852 15.3821 81.6292 15.3821C80.6792 15.3821 79.9572 15.7052 79.4632 16.3702C78.9882 17.0352 78.7412 17.9282 78.7412 19.0302C78.7412 19.5622 78.7982 20.0371 78.9312 20.4741C79.0642 20.9111 79.2352 21.2911 79.5012 21.6141C79.7482 21.9371 80.0522 22.1841 80.4132 22.3741C80.7742 22.5641 81.1732 22.6591 81.6482 22.6591C82.1802 22.6591 82.5982 22.5451 82.9592 22.3362C83.3202 22.1272 83.6052 21.8421 83.8522 21.5191C84.0802 21.1771 84.2512 20.7972 84.3462 20.3602C84.4412 19.9042 84.4982 19.4672 84.4982 19.0112ZM88.5072 9.91015L90.7872 9.91015L90.7872 12.0571L88.5072 12.0571L88.5072 9.91015ZM88.5072 13.8431L90.7872 13.8431L90.7872 24.1602L88.5072 24.1602L88.5072 13.8431ZM92.8202 9.91015L95.1002 9.91015L95.1002 24.1602L92.8202 24.1602L92.8202 9.91015ZM102.054 24.4451C101.237 24.4451 100.496 24.3121 99.8502 24.0271C99.2042 23.7421 98.6722 23.3811 98.2162 22.9061C97.7792 22.4311 97.4372 21.8421 97.2092 21.1771C96.9812 20.5121 96.8482 19.7711 96.8482 18.9921C96.8482 18.2131 96.9622 17.4911 97.2092 16.8261C97.4372 16.1611 97.7792 15.5911 98.2162 15.0971C98.6532 14.6221 99.2042 14.2421 99.8502 13.9761C100.496 13.7101 101.237 13.5581 102.054 13.5581C102.871 13.5581 103.612 13.6911 104.258 13.9761C104.904 14.2421 105.436 14.6221 105.892 15.0971C106.329 15.5721 106.671 16.1611 106.899 16.8261C107.127 17.4911 107.26 18.2131 107.26 18.9921C107.26 19.7901 107.146 20.5121 106.899 21.1771C106.652 21.8421 106.329 22.4121 105.892 22.9061C105.455 23.3811 104.904 23.7611 104.258 24.0271C103.612 24.2931 102.89 24.4451 102.054 24.4451ZM102.054 22.6401C102.548 22.6401 103.004 22.5261 103.365 22.3171C103.745 22.1081 104.03 21.8231 104.277 21.4811C104.524 21.1391 104.695 20.7401 104.809 20.3221C104.923 19.8851 104.98 19.4481 104.98 18.9921C104.98 18.5551 104.923 18.1181 104.809 17.6811C104.695 17.2441 104.524 16.8641 104.277 16.5221C104.03 16.1801 103.726 15.9141 103.365 15.7051C102.985 15.4961 102.548 15.3821 102.054 15.3821C101.56 15.3821 101.104 15.4961 100.743 15.7052C100.363 15.9141 100.078 16.1991 99.8312 16.5221C99.5842 16.8641 99.4132 17.2441 99.2992 17.6811C99.1852 18.1181 99.1282 18.5551 99.1282 18.9921C99.1282 19.4481 99.1852 19.8851 99.2992 20.3221C99.4132 20.7591 99.5842 21.1391 99.8312 21.4811C100.078 21.8231 100.382 22.1081 100.743 22.3171C101.123 22.5451 101.56 22.6401 102.054 22.6401ZM107.944 13.8431L109.673 13.8431L109.673 10.7271L111.953 10.7271L111.953 13.8241L114.005 13.8241L114.005 15.5151L111.953 15.5151L111.953 21.0251C111.953 21.2721 111.972 21.4621 111.991 21.6521C112.01 21.8231 112.067 21.9751 112.124 22.0891C112.2 22.2031 112.314 22.2981 112.447 22.3551C112.599 22.4121 112.789 22.4501 113.055 22.4501C113.207 22.4501 113.378 22.4501 113.53 22.4311C113.682 22.4121 113.853 22.3931 114.005 22.3551L114.005 24.1221C113.758 24.1601 113.511 24.1791 113.264 24.1981C113.017 24.2361 112.789 24.2361 112.523 24.2361C111.915 24.2361 111.44 24.1791 111.079 24.0651C110.718 23.9511 110.433 23.7801 110.224 23.5711C110.015 23.3431 109.882 23.0771 109.806 22.7541C109.73 22.4311 109.692 22.0321 109.673 21.6141L109.673 15.5341L107.944 15.5341L107.944 13.8051L107.944 13.8431Z" fill="white"/>
<path d="M27.303 9.918L16.872 9.918L13.661 -1.19428e-06L10.431 9.918L8.65398e-07 9.899L8.436 16.036L5.206 25.954L13.642 19.817L22.078 25.954L18.867 16.036L27.303 9.918Z" fill="#00B67D"/>
<path d="M19.5921 18.2772L18.8701 16.0352L13.6641 19.8162L19.5921 18.2772Z" fill="#005228"/>
<rect width="23.9052" height="23.1194" transform="translate(130.005 2.42993)" fill="#02B57B"/>
<path d="M149.91 12.2076L143.834 12.2076L141.963 6.42993L140.082 12.2076L134.005 12.1965L138.919 15.7716L137.038 21.5493L141.952 17.9742L146.867 21.5493L144.996 15.7716L149.91 12.2076Z" fill="#F0F0F0"/>
<path d="M145.415 17.078L144.995 15.772L141.962 17.9746L145.415 17.078Z" fill="#005228"/>
<rect width="23.9052" height="23.1194" transform="translate(161.91 2.42993)" fill="#02B57B"/>
<path d="M181.816 12.2076L175.739 12.2076L173.869 6.42993L171.987 12.2076L165.91 12.1965L170.825 15.7716L168.943 21.5493L173.857 17.9742L178.772 21.5493L176.901 15.7716L181.816 12.2076Z" fill="#F0F0F0"/>
<path d="M177.321 17.078L176.9 15.772L173.867 17.9746L177.321 17.078Z" fill="#005228"/>
<rect width="23.9052" height="23.1194" transform="translate(193.815 2.42993)" fill="#02B57B"/>
<path d="M213.721 12.2076L207.644 12.2076L205.774 6.42993L203.892 12.2076L197.815 12.1965L202.73 15.7716L200.848 21.5493L205.762 17.9742L210.677 21.5493L208.806 15.7716L213.721 12.2076Z" fill="#F0F0F0"/>
<path d="M209.226 17.078L208.805 15.772L205.772 17.9746L209.226 17.078Z" fill="#005228"/>
<rect width="23.9052" height="23.1194" transform="translate(225.721 2.42993)" fill="#02B57B"/>
<path d="M245.626 12.2076L239.549 12.2076L237.679 6.42993L235.797 12.2076L229.721 12.1965L234.635 15.7716L232.753 21.5493L237.668 17.9742L242.582 21.5493L240.712 15.7716L245.626 12.2076Z" fill="#F0F0F0"/>
<path d="M241.131 17.078L240.71 15.772L237.678 17.9746L241.131 17.078Z" fill="#005228"/>
<rect width="23.9052" height="23.1194" transform="translate(257.626 2.42993)" fill="#02B57B"/>
<path d="M277.531 12.2076L271.455 12.2076L269.584 6.42993L267.702 12.2076L261.626 12.1965L266.54 15.7716L264.659 21.5493L269.573 17.9742L274.487 21.5493L272.617 15.7716L277.531 12.2076Z" fill="#F0F0F0"/>
<path d="M273.036 17.078L272.616 15.772L269.583 17.9746L273.036 17.078Z" fill="#005228"/>
</svg>
